<svg class="svg-icon" style="width: 1em; height: 1em;vertical-align: middle;fill: currentColor;overflow: hidden;"
  viewBox="0 0 1024 1024" version="1.1" xmlns="http://www.w3.org/2000/svg">
  <path
    d="M767.48465067 926.06398993h-531.5987627c-108.73767783 0-197.20600117-92.30955857-197.20600111-205.78016839v-360.11529108c0-113.47061007 88.46832368-205.78016843 197.20600111-205.78016864h531.5987627a25.72251573 25.72251573 0 1 1 0 51.44504587h-531.5987627c-80.37430028 0-145.76095568 69.24501985-145.7609554 154.33512277v360.11529108c0 85.10724671 65.38665508 154.33512288 145.7609554 154.33513684h531.5987627c80.37430028 0 145.76095568-69.22787596 145.76095559-154.33513684v-360.11529108a25.72251573 25.72251573 0 1 1 51.44504568 0v360.11529108c0 113.47061007-88.46832368 205.78016843-197.20600127 205.78016839z"
    fill="#1296db" />
  <path
    d="M510.25943645 651.69044154a25.72251573 25.72251573 0 0 1-18.5202039-43.57395009l463.00536825-480.15373107a25.72251573 25.72251573 0 1 1 37.04043628 35.70285457l-463.00538263 480.15373098a25.61963791 25.61963791 0 0 1-18.520218 7.87109561z"
    fill="#1296db" />
</svg>
