<svg fill="#999" height="200" width="200" version="1.1" id="Layer_1" xmlns="http://www.w3.org/2000/svg" viewBox="0 0 512 512" xml:space="preserve"><path d="m346.991 149.886-21.508-21.509-176.36 176.355c-21.903 21.903-21.903 57.543 0 79.447 21.903 21.904 57.543 21.904 79.447 0L465.422 147.32c16.3-16.3 25.277-37.971 25.277-61.022s-8.977-44.722-25.277-61.022C449.123 8.977 427.451 0 404.4 0c-23.052 0-44.723 8.977-61.022 25.277L55.401 313.254c-21.99 21.99-34.1 51.226-34.1 82.323 0 31.098 12.11 60.333 34.1 82.323 21.99 21.99 51.226 34.1 82.323 34.1s60.333-12.11 82.323-34.1l227.479-227.48-21.508-21.508-227.479 227.48c-16.245 16.245-37.842 25.19-60.815 25.19s-44.57-8.946-60.815-25.19c-16.245-16.245-25.19-37.842-25.19-60.815s8.947-44.571 25.19-60.815L364.887 46.785c21.788-21.787 57.24-21.787 79.028 0 21.788 21.788 21.788 57.24 0 79.028L207.063 362.67c-10.044 10.044-26.387 10.044-36.431 0s-10.044-26.387 0-36.431l176.359-176.353z" id="SVGRepo_iconCarrier"/></svg>